inDegrees=no
num_controls=7
num_derivatives=13
num_iterations=91
num_multipliers=7
num_parameters=0
num_slacks=7
num_states=26
objective=0.472966
objective_accelerations=0.045018
objective_balance=0.000916
objective_effort=0.014739
objective_height=0.403496
objective_ligament=0.008798
solver_duration=1468.214916
status=Solve_Succeeded
success=true
DataType=double
version=3
OpenSimVersion=4.5
endheader
time	/jointset/ground_pelvis/pelvis_tilt/value	/jointset/ground_pelvis/pelvis_tx/value	/jointset/ground_pelvis/pelvis_ty/value	/jointset/hip_l/hip_flexion_l/value	/jointset/hip_l/hip_adduction_l/value	/jointset/hip_l/hip_rotation_l/value	/jointset/back/lumbar_extension/value	/jointset/patellofemoral_l/patellar_flexion_l/value	/jointset/knee_l/knee_flexion_l/value	/jointset/knee_l/knee_adduction_l/value	/jointset/knee_l/knee_rotation_l/value	/jointset/ankle_l/ankle_angle_l/value	/jointset/subtalar_l/subtalar_angle_l/value	/jointset/ground_pelvis/pelvis_tilt/speed	/jointset/ground_pelvis/pelvis_tx/speed	/jointset/ground_pelvis/pelvis_ty/speed	/jointset/hip_l/hip_flexion_l/speed	/jointset/hip_l/hip_adduction_l/speed	/jointset/hip_l/hip_rotation_l/speed	/jointset/back/lumbar_extension/speed	/jointset/patellofemoral_l/patellar_flexion_l/speed	/jointset/knee_l/knee_flexion_l/speed	/jointset/knee_l/knee_adduction_l/speed	/jointset/knee_l/knee_rotation_l/speed	/jointset/ankle_l/ankle_angle_l/speed	/jointset/subtalar_l/subtalar_angle_l/speed	/forceset/tau_hip_flexion_l	/forceset/tau_hip_adduction_l	/forceset/tau_hip_rotation_l	/forceset/tau_knee_flexion_l	/forceset/tau_ankle_angle_l	/forceset/tau_subtalar_angle_l	/forceset/tau_lumbar_extension	lambda_cid13_p0	lambda_cid13_p1	lambda_cid13_p2	lambda_cid13_p3	lambda_cid13_p4	lambda_cid13_p5	lambda_cid14_p0	/jointset/ground_pelvis/pelvis_tilt/accel	/jointset/ground_pelvis/pelvis_tx/accel	/jointset/ground_pelvis/pelvis_ty/accel	/jointset/hip_l/hip_flexion_l/accel	/jointset/hip_l/hip_adduction_l/accel	/jointset/hip_l/hip_rotation_l/accel	/jointset/back/lumbar_extension/accel	/jointset/patellofemoral_l/patellar_flexion_l/accel	/jointset/knee_l/knee_flexion_l/accel	/jointset/knee_l/knee_adduction_l/accel	/jointset/knee_l/knee_rotation_l/accel	/jointset/ankle_l/ankle_angle_l/accel	/jointset/subtalar_l/subtalar_angle_l/accel	gamma_cid13_p0	gamma_cid13_p1	gamma_cid13_p2	gamma_cid13_p3	gamma_cid13_p4	gamma_cid13_p5	gamma_cid14_p0
0.5	-0.0706880157843634	0.04641422835807636	0.8091695160091692	0.7388633111105877	-0.3601122813379793	-0.04756391990515962	-0.3901996586876227	0.8528343942061478	0.8528343942061269	-0.02885298488878184	-0.1745263873442276	0.3063038655953179	0.165553689145366	-0.395002786244405	-0.1254347049411746	-0.3772856820852017	1.701520827083166	-0.01728393934759713	0.4928803066519715	-0.3234249318523905	1.705027631232699	1.70502763123272	0.1918854820048164	1.920768701455585e-05	0.5315077307430973	0.1989705168170177	-0.04391449033268015	0.01856030856606708	-0.0007891445807786025	-0.238186142759091	0.03545097224333412	0.01629547232290472	0.08102105355469057	-13.5220321833542	-2.822934304130029	-1.985884762310989	-1.82896632964002	-448.3076719710739	-75.36150285327396	-8.82761654191806	-0.06507043988871991	0.281524622123226	-0.3069766603177458	-0.7952164846523069	0.1531350165469669	-0.5619072864930542	1.118873082262449	-1.440828577150831	-1.440828577150842	-0.2208945661247148	0.01082092033316174	-0.6863230710945449	0.1321083377539103	-2.559043034609685e-07	-9.450586269916078e-07	2.729127108904497e-06	1.605166076205257e-08	-5.272627871523104e-07	-1.40223236978255e-06	-3.984014676321052e-07
0.51	-0.07464013081124198	0.04517410364461086	0.8053822381115905	0.7558352599502363	-0.3602790485469127	-0.04266154838336993	-0.3933780986887957	0.8698095490935254	0.8698095490935647	-0.02694981688313331	-0.1745263541296123	0.3115832101259295	0.1675471899271424	-0.3953643704982443	-0.1225798417619565	-0.3800829233911482	1.692632204869331	-0.01607158254117194	0.4875557033642515	-0.3122115426487285	1.689753919354824	1.689753919354835	0.1887313426174231	-1.070384567160776e-05	0.5242779320511155	0.1996870173914584	-0.04700160844116978	0.01993618063770659	-0.001093184301738355	-0.2403210934798471	0.0337541595126313	0.01689945185016717	0.08357730385422002	-14.16167232027944	-2.877359633577313	-2.086733990909666	-1.510119529515108	-450.5744712571401	-75.46282395716432	-8.114044697797205	-0.01335318258196752	0.2890262183277083	-0.2531575371832493	-0.9712315507882051	0.1046317429804228	-0.523883051655295	1.130300699453459	-1.607974516608971	-1.607974516610438	-0.3652708747039299	-0.009145757943490124	-0.753853916753729	0.0348740002313704	-2.533386185843625e-07	-9.997035410536917e-07	2.742774088848433e-06	9.055848852323386e-09	-5.210762855860134e-07	-1.397047022754887e-06	-4.057902703422187e-07
0.52	-0.07859419183355379	0.04396283937343883	0.8015695758666629	0.7727112132755353	-0.3604338230417205	-0.03781365213481073	-0.3964428590259259	0.8866245004574561	0.8866245004574902	-0.02507870972133739	-0.1745264697438619	0.3167877475399206	0.1695465463312519	-0.3953919853300918	-0.119662616482481	-0.3823625515551113	1.682321724213933	-0.01488539652313514	0.4819852520067812	-0.3006889990436473	1.672986926536821	1.672986926536822	0.1854733132437388	-1.055809332281847e-05	0.5165463074189818	0.2001416412835857	-0.0500887265496723	0.021312052709308	-0.00139722402318286	-0.2424560442006192	0.03205734678191687	0.01750343137738091	0.08613355415374575	-14.79925247966594	-2.93808789617173	-2.179789835188751	-1.214444989341771	-452.8176278594874	-75.63642854582743	-7.427124392558745	0.001723444509713196	0.2939970421746991	-0.2034540319210637	-1.079588172965061	0.1479008588692747	-0.6110769004431039	1.180703962546355	-1.739484765176477	-1.739484765176447	-0.2416725633829223	0.0168323773401736	-0.786688259124951	0.07973300129122264	-2.514025997094559e-07	-8.240518102921939e-07	2.758041846364735e-06	3.084705068725371e-08	-5.052958087992809e-07	-1.255533223008857e-06	-3.971819303715587e-07
0.53	-0.08254700335135083	0.04278117348628487	0.7977367202669634	0.7894770692755091	-0.3605768668865163	-0.03302211599923589	-0.3993908841619707	0.903264602252715	0.9032646022527117	-0.02324103995363102	-0.1745261586787085	0.3219128049533913	0.1715492116861131	-0.3951181408458109	-0.1166479508592062	-0.3841187360774326	1.670604295310169	-0.01373209304323728	0.4762917378901587	-0.2888788367462267	1.654803884253306	1.654803884253306	0.1820315625937207	7.111814281555117e-05	0.5084138992878671	0.2003503163092949	-0.05272785178780769	0.02203300738234045	-0.001635910796433472	-0.2455341714731513	0.03162975913569934	0.01813465035016838	0.08839497522208072	-15.02586986760284	-3.049012380970589	-2.303212504048298	-1.302159933743892	-455.1381721939873	-76.05292187519522	-6.776288500919874	0.04801458424122142	0.3086012943179063	-0.1483252176985817	-1.254632515927703	0.09736026708096235	-0.5534027128728539	1.186751076197006	-1.892067667291489	-1.892067667291767	-0.3998302366569433	0.004076071644347146	-0.8342546921262021	-0.0149455404148999	-2.45473878180524e-07	-6.732048218813307e-07	2.729664153790245e-06	4.770088877208311e-08	-4.824780943453972e-07	-1.110908879087134e-06	-3.856412076478744e-07
0.54	-0.08649551649753563	0.04163033424974642	0.7938889779109792	0.8061183885330728	-0.360708714661604	-0.02828849781395378	-0.4022196919324701	0.9197160028836798	0.9197160028836193	-0.02143866847658492	-0.1745249826862106	0.326954990765147	0.1735526877325065	-0.3945323110073674	-0.1134972863593836	-0.3853399028121995	1.65741437573258	-0.01264618258209142	0.4704016619494925	-0.276845525934519	1.63524669367569	1.635246693675687	0.1784136551098711	0.000162427374697255	0.4999719870758926	0.2003037795899751	-0.05536697702597561	0.02275396205531197	-0.001874597569715604	-0.2486122987457003	0.03120217148946397	0.01876586932286481	0.09065639629039825	-15.24998613968529	-3.167925287080056	-2.41673601607914	-1.418591138727854	-457.4386265172674	-76.54340865314755	-6.161934604645232	0.06412051534227572	0.3211968174842298	-0.09645047441021706	-1.374086307730001	0.1344222551188769	-0.6503892652518226	1.225333665403773	-2.01431442399682	-2.014314423996825	-0.2769039301492386	0.01875897648883799	-0.848589075296906	0.02869065228541661	-2.351276983960747e-07	-5.498013781988294e-07	2.652997878136581e-06	5.909211164403482e-08	-4.518744999193457e-07	-9.62843082034857e-07	-3.70856146559142e-07
